<svg width="512" height="512" viewBox="0 0 512 512" fill="none" xmlns="http://www.w3.org/2000/svg">
<path fill-rule="evenodd" clip-rule="evenodd" d="M256 512C397.385 512 512 397.385 512 256C512 114.615 397.385 0 256 0C114.615 0 0 114.615 0 256C0 274.85 2.03725 293.224 5.90359 310.913C7.4777 318.116 17.449 319.023 21.5493 312.897C44.5107 278.589 83.6174 256 128 256C174.673 256 215.511 280.98 237.874 318.299C240.395 322.505 238.167 327.833 233.503 329.348L170.903 349.689C167.841 350.683 164.521 349.701 162.171 347.5C153.231 339.127 141.213 334 127.998 334C100.384 334 77.998 356.386 77.998 384C77.998 411.614 100.384 434 127.998 434C143.787 434 157.867 426.682 167.03 415.252C169.343 412.367 173.134 410.904 176.651 412.046L237.327 431.761C241.803 433.215 244.081 438.214 241.931 442.401C231.951 461.83 217.148 478.374 199.102 490.451C192.976 494.552 193.884 504.522 201.086 506.096C218.776 509.963 237.15 512 256 512Z" fill="#1F2937"/>
</svg>
